<svg width="56" height="56" viewBox="0 0 56 56" fill="none" xmlns="http://www.w3.org/2000/svg">
<g clip-path="url(#clip0_54_168)">
<g clip-path="url(#clip1_54_168)">
<g clip-path="url(#clip2_54_168)">
<path d="M35.2258 46.9677C36.7197 46.9677 37.9355 45.7519 37.9355 44.258C37.9355 42.7641 36.7197 41.5483 35.2258 41.5483C34.0498 41.5483 33.0563 42.3061 32.6823 43.3548H28.9032V37.9354H32.6823C33.0563 38.9841 34.0498 39.7419 35.2258 39.7419C36.7197 39.7419 37.9355 38.5261 37.9355 37.0322C37.9355 35.5383 36.7197 34.3225 35.2258 34.3225C34.0498 34.3225 33.0563 35.0803 32.6823 36.129H28.9032V30.7096H32.6823C33.0563 31.7583 34.0498 32.5161 35.2258 32.5161C36.7197 32.5161 37.9355 31.3003 37.9355 29.8064C37.9355 28.3125 36.7197 27.0967 35.2258 27.0967C34.0498 27.0967 33.0563 27.8545 32.6823 28.9032H28.9032V27.0967H27.0968V23.3176C28.1454 22.9437 28.9032 21.9501 28.9032 20.7741C28.9032 19.2802 27.6875 18.0645 26.1935 18.0645C24.6996 18.0645 23.4839 19.2802 23.4839 20.7741C23.4839 21.9501 24.2417 22.9437 25.2903 23.3176V27.0967H19.871V23.3176C20.9196 22.9437 21.6774 21.9501 21.6774 20.7741C21.6774 19.2802 20.4617 18.0645 18.9677 18.0645C17.4738 18.0645 16.2581 19.2802 16.2581 20.7741C16.2581 21.9501 17.0159 22.9437 18.0645 23.3176V27.0967H12.6452V23.3176C13.6938 22.9437 14.4516 21.9501 14.4516 20.7741C14.4516 19.2802 13.2359 18.0645 11.7419 18.0645C10.248 18.0645 9.03226 19.2802 9.03226 20.7741C9.03226 21.9501 9.79006 22.9437 10.8387 23.3176V27.0967H9.03226V28.9032H5.25316C4.87923 27.8545 3.88568 27.0967 2.70968 27.0967C1.21574 27.0967 0 28.3125 0 29.8064C0 31.3003 1.21574 32.5161 2.70968 32.5161C3.88568 32.5161 4.87923 31.7583 5.25316 30.7096H9.03226V36.129H5.25316C4.87923 35.0803 3.88568 34.3225 2.70968 34.3225C1.21574 34.3225 0 35.5383 0 37.0322C0 38.5261 1.21574 39.7419 2.70968 39.7419C3.88568 39.7419 4.87923 38.9841 5.25316 37.9354H9.03226V43.3548H5.25316C4.87923 42.3061 3.88568 41.5483 2.70968 41.5483C1.21574 41.5483 0 42.7641 0 44.258C0 45.7519 1.21574 46.9677 2.70968 46.9677C3.88568 46.9677 4.87923 46.2099 5.25316 45.1612H9.03226V46.9677H10.8387V50.7468C9.79006 51.1207 9.03226 52.1143 9.03226 53.2903C9.03226 54.7842 10.248 55.9999 11.7419 55.9999C13.2359 55.9999 14.4516 54.7842 14.4516 53.2903C14.4516 52.1143 13.6938 51.1207 12.6452 50.7468V46.9677H18.0645V50.7468C17.0159 51.1207 16.2581 52.1143 16.2581 53.2903C16.2581 54.7842 17.4738 55.9999 18.9677 55.9999C20.4617 55.9999 21.6774 54.7842 21.6774 53.2903C21.6774 52.1143 20.9196 51.1207 19.871 50.7468V46.9677H25.2903V50.7468C24.2417 51.1207 23.4839 52.1143 23.4839 53.2903C23.4839 54.7842 24.6996 55.9999 26.1935 55.9999C27.6875 55.9999 28.9032 54.7842 28.9032 53.2903C28.9032 52.1143 28.1454 51.1207 27.0968 50.7468V46.9677H28.9032V45.1612H32.6823C33.0563 46.2099 34.0498 46.9677 35.2258 46.9677ZM35.2258 43.3548C35.7244 43.3548 36.129 43.7594 36.129 44.258C36.129 44.7566 35.7244 45.1612 35.2258 45.1612C34.7272 45.1612 34.3226 44.7566 34.3226 44.258C34.3226 43.7594 34.7272 43.3548 35.2258 43.3548ZM35.2258 36.129C35.7244 36.129 36.129 36.5336 36.129 37.0322C36.129 37.5308 35.7244 37.9354 35.2258 37.9354C34.7272 37.9354 34.3226 37.5308 34.3226 37.0322C34.3226 36.5336 34.7272 36.129 35.2258 36.129ZM35.2258 28.9032C35.7244 28.9032 36.129 29.3078 36.129 29.8064C36.129 30.305 35.7244 30.7096 35.2258 30.7096C34.7272 30.7096 34.3226 30.305 34.3226 29.8064C34.3226 29.3078 34.7272 28.9032 35.2258 28.9032ZM2.70968 30.7096C2.2111 30.7096 1.80645 30.305 1.80645 29.8064C1.80645 29.3078 2.2111 28.9032 2.70968 28.9032C3.20826 28.9032 3.6129 29.3078 3.6129 29.8064C3.6129 30.305 3.20826 30.7096 2.70968 30.7096ZM2.70968 37.9354C2.2111 37.9354 1.80645 37.5308 1.80645 37.0322C1.80645 36.5336 2.2111 36.129 2.70968 36.129C3.20826 36.129 3.6129 36.5336 3.6129 37.0322C3.6129 37.5308 3.20826 37.9354 2.70968 37.9354ZM2.70968 45.1612C2.2111 45.1612 1.80645 44.7566 1.80645 44.258C1.80645 43.7594 2.2111 43.3548 2.70968 43.3548C3.20826 43.3548 3.6129 43.7594 3.6129 44.258C3.6129 44.7566 3.20826 45.1612 2.70968 45.1612ZM26.1935 19.8709C26.6921 19.8709 27.0968 20.2765 27.0968 20.7741C27.0968 21.2718 26.6921 21.6774 26.1935 21.6774C25.695 21.6774 25.2903 21.2718 25.2903 20.7741C25.2903 20.2765 25.695 19.8709 26.1935 19.8709ZM18.9677 19.8709C19.4663 19.8709 19.871 20.2765 19.871 20.7741C19.871 21.2718 19.4663 21.6774 18.9677 21.6774C18.4692 21.6774 18.0645 21.2718 18.0645 20.7741C18.0645 20.2765 18.4692 19.8709 18.9677 19.8709ZM11.7419 19.8709C12.2405 19.8709 12.6452 20.2765 12.6452 20.7741C12.6452 21.2718 12.2405 21.6774 11.7419 21.6774C11.2434 21.6774 10.8387 21.2718 10.8387 20.7741C10.8387 20.2765 11.2434 19.8709 11.7419 19.8709ZM11.7419 54.1935C11.2434 54.1935 10.8387 53.7888 10.8387 53.2903C10.8387 52.7917 11.2434 52.387 11.7419 52.387C12.2405 52.387 12.6452 52.7917 12.6452 53.2903C12.6452 53.7888 12.2405 54.1935 11.7419 54.1935ZM18.9677 54.1935C18.4692 54.1935 18.0645 53.7888 18.0645 53.2903C18.0645 52.7917 18.4692 52.387 18.9677 52.387C19.4663 52.387 19.871 52.7917 19.871 53.2903C19.871 53.7888 19.4663 54.1935 18.9677 54.1935ZM26.1935 54.1935C25.695 54.1935 25.2903 53.7888 25.2903 53.2903C25.2903 52.7917 25.695 52.387 26.1935 52.387C26.6921 52.387 27.0968 52.7917 27.0968 53.2903C27.0968 53.7888 26.6921 54.1935 26.1935 54.1935ZM27.0968 45.1612H10.8387V28.9032H27.0968V45.1612Z" fill="#FBC531"/>
<path d="M51.9309 14.4507C51.594 13.1446 51.0756 11.8973 50.3828 10.7267L53.2632 7.84542L48.1537 2.73677L45.2724 5.61806C44.1018 4.92439 42.8544 4.40594 41.5484 4.06903V0H34.3226V4.06903C33.0165 4.40594 31.7691 4.92439 30.5986 5.61716L27.7173 2.73587L22.6077 7.84452L25.4881 10.7258C24.7953 11.8964 24.2769 13.1446 23.94 14.4507H20.7742V16.2572H25.3969L25.5441 15.5337C25.8648 13.9521 26.4853 12.4591 27.3885 11.0943L27.7958 10.4792L25.1611 7.84452L27.7164 5.29019L30.3511 7.9249L30.9662 7.51755C32.33 6.61432 33.8231 5.99381 35.4055 5.67316L36.129 5.52684V1.80645H39.7419V5.52684L40.4654 5.67406C42.0478 5.99471 43.5409 6.61523 44.9048 7.51845L45.5198 7.92581L48.1546 5.2911L50.7098 7.84542L48.0751 10.4801L48.4824 11.0952C49.3857 12.46 50.0062 13.953 50.3268 15.5346L50.474 16.2581H54.1935V19.871H50.474L50.3268 20.5945C50.0062 22.176 49.3857 23.669 48.4824 25.0329L48.0751 25.6489L50.7098 28.2836L48.1546 30.8388L45.5198 28.2041L44.9048 28.6115C43.54 29.5147 42.0469 30.1361 40.4654 30.4559L39.7419 30.6031V35.2258H41.5484V32.06C42.8535 31.724 44.1018 31.2055 45.2724 30.5119L48.1537 33.3923L53.2632 28.2827L50.3828 25.4014C51.0756 24.2308 51.594 22.9826 51.9309 21.6765H56V14.4507H51.9309Z" fill="#FBC531"/>
<path d="M37.9355 25.2903V27.0967C42.9158 27.0967 46.9677 23.0449 46.9677 18.0645C46.9677 13.0841 42.9158 9.03223 37.9355 9.03223C32.9551 9.03223 28.9032 13.0841 28.9032 18.0645H30.7097C30.7097 14.0804 33.9513 10.8387 37.9355 10.8387C41.9196 10.8387 45.1613 14.0804 45.1613 18.0645C45.1613 22.0486 41.9196 25.2903 37.9355 25.2903Z" fill="#FBC531"/>
<path d="M25.2903 30.7097H12.6451V32.5162H25.2903V30.7097Z" fill="#FBC531"/>
<path d="M25.2903 41.5483H23.4839V43.3548H25.2903V41.5483Z" fill="#FBC531"/>
<path d="M21.6774 41.5483H12.6451V43.3548H21.6774V41.5483Z" fill="#FBC531"/>
<path d="M33.2396 53.6678L33.5991 55.439C44.6275 53.1999 53.2 44.6274 55.4391 33.599L53.6679 33.2395C51.5751 43.5561 43.5563 51.575 33.2396 53.6678Z" fill="#FBC531"/>
<path d="M22.7604 2.33111L22.4009 0.560791C11.3725 2.79989 2.80001 11.3724 0.560913 22.4008L2.33214 22.7594C4.42491 12.4445 12.4438 4.42479 22.7604 2.33111Z" fill="#FBC531"/>
</g>
</g>
</g>
<defs>
<clipPath id="clip0_54_168">
<rect width="56" height="56" fill="white"/>
</clipPath>
<clipPath id="clip1_54_168">
<rect width="56" height="56" fill="white"/>
</clipPath>
<clipPath id="clip2_54_168">
<rect width="56" height="56" fill="white"/>
</clipPath>
</defs>
</svg>
