<svg width="56" height="47" viewBox="0 0 56 47" fill="none" xmlns="http://www.w3.org/2000/svg">
<g clip-path="url(#clip0_54_205)">
<g clip-path="url(#clip1_54_205)">
<g clip-path="url(#clip2_54_205)">
<path d="M46.4339 0.00244141C42.1647 0.00244141 38.7915 3.42541 38.7915 7.69096C38.7915 11.9565 42.2174 15.3268 46.4339 15.3268C50.6503 15.3268 54.1289 11.9038 54.1289 7.6383C54.1289 3.37275 50.703 0.00244141 46.4339 0.00244141ZM46.4339 13.6417C43.1134 13.6417 40.4254 10.9559 40.4254 7.6383C40.4254 4.32065 43.1661 1.6876 46.4339 1.6876C49.7543 1.6876 52.4423 4.37331 52.4423 7.69096C52.4423 11.0086 49.7543 13.6417 46.4339 13.6417Z" fill="#FBC531"/>
<path d="M48.8583 8.84958C48.8056 8.69159 48.8056 8.58627 48.7002 8.42829C48.6475 8.32297 48.5948 8.16498 48.4894 8.05966C48.384 7.95434 48.3313 7.84902 48.2258 7.74369C48.1204 7.63837 48.015 7.53305 47.8569 7.48039C47.7515 7.37507 47.5934 7.32241 47.488 7.26974C47.3298 7.21708 47.2244 7.11176 47.0663 7.0591C46.9082 7.00644 46.7501 6.95378 46.6447 6.90112C46.592 6.90112 46.4865 6.84846 46.4338 6.7958C46.3811 6.74313 46.2757 6.74313 46.223 6.69047C46.1703 6.63781 46.0649 6.63781 46.0122 6.58515C45.9595 6.53249 45.9068 6.47983 45.8541 6.42717C45.8014 6.37451 45.7487 6.32185 45.7487 6.21652C45.696 6.16386 45.696 6.05854 45.696 6.00588C45.696 5.90056 45.696 5.8479 45.696 5.74257C45.696 5.68991 45.7487 5.58459 45.7487 5.53193C45.8014 5.47927 45.8014 5.37395 45.8541 5.32129C45.9068 5.26862 45.9595 5.21596 46.0122 5.1633C46.0649 5.11064 46.1703 5.05798 46.2757 5.05798C46.3811 5.00532 46.4338 5.00532 46.5393 5.00532C46.592 5.00532 46.6447 5.00532 46.6974 5.00532C46.7501 5.00532 46.8028 5.00532 46.8555 5.00532C46.9609 5.00532 47.0136 5.00532 47.119 5.05798C47.2244 5.05798 47.3298 5.11064 47.3825 5.11064C47.4353 5.11064 47.5407 5.1633 47.5934 5.1633C47.6988 5.1633 47.7515 5.21596 47.8042 5.21596L48.0677 5.32129L48.1204 5.00532L48.2258 4.16274V3.9521L48.015 3.89944C47.9623 3.89944 47.8569 3.84678 47.8042 3.84678C47.7515 3.84678 47.6988 3.79411 47.5934 3.79411C47.5407 3.79411 47.4353 3.74145 47.3298 3.74145C47.2244 3.74145 47.1717 3.68879 47.0663 3.68879H47.0136V2.95154V2.68823H46.7501H46.0122H45.7487V2.95154V3.74145H45.696C45.5378 3.79411 45.3797 3.84678 45.2216 3.9521C45.0635 4.00476 44.9581 4.11008 44.8527 4.2154C44.7473 4.32073 44.6418 4.42605 44.5364 4.58403C44.431 4.68935 44.3783 4.84734 44.3256 5.00532C44.2729 5.1633 44.2202 5.32129 44.1675 5.47927C44.1148 5.63725 44.1148 5.8479 44.1148 6.00588C44.1148 6.16386 44.1148 6.26918 44.1675 6.42717C44.2202 6.58515 44.2202 6.69047 44.3256 6.84846C44.3783 6.95378 44.4837 7.11176 44.5364 7.21708C44.6418 7.32241 44.6945 7.42773 44.8 7.53305C44.9054 7.63837 45.0108 7.74369 45.1689 7.79636C45.2743 7.90168 45.4324 7.95434 45.5378 8.007C45.696 8.05966 45.8541 8.16498 45.9595 8.21764C46.1176 8.27031 46.2757 8.32297 46.3811 8.37563C46.4338 8.37563 46.5393 8.42829 46.592 8.48095C46.6447 8.53361 46.7501 8.53361 46.8028 8.58627C46.8555 8.63893 46.9082 8.69159 46.9609 8.69159C47.0136 8.74425 47.0663 8.79692 47.119 8.84958C47.1717 8.90224 47.1717 8.9549 47.2244 9.06022C47.2244 9.11288 47.2771 9.2182 47.2771 9.32353C47.2771 9.42885 47.2771 9.48151 47.2771 9.58683C47.2771 9.63949 47.2244 9.74482 47.1717 9.79748C47.119 9.85014 47.0663 9.9028 47.0136 9.95546C46.9609 10.0081 46.9082 10.0608 46.8028 10.1134C46.7501 10.1661 46.6447 10.1661 46.592 10.2188C46.5393 10.2188 46.4338 10.2714 46.3284 10.2714C46.2757 10.2714 46.223 10.2714 46.1176 10.2714C46.0649 10.2714 45.9595 10.2714 45.9068 10.2714C45.8014 10.2714 45.696 10.2714 45.6433 10.2714C45.5378 10.2714 45.4324 10.2188 45.3797 10.2188C45.2743 10.2188 45.1689 10.1661 45.0635 10.1134C44.9581 10.0608 44.8527 10.0608 44.7473 10.0081C44.6945 10.0081 44.6418 9.95546 44.5891 9.95546C44.5364 9.95546 44.4837 9.9028 44.431 9.9028L44.1148 9.74482L44.0621 10.1134L43.9567 11.0613V11.2193L44.1148 11.272C44.3256 11.2193 44.431 11.272 44.5891 11.3246C44.6945 11.3773 44.8527 11.43 44.9581 11.43C45.0635 11.4826 45.2216 11.4826 45.3797 11.5353C45.5378 11.588 45.6433 11.588 45.8014 11.588H45.9068V12.3779V12.6412H46.1703H46.9082H47.1717V12.3779V11.5353H47.2244C47.3825 11.4826 47.5407 11.43 47.6988 11.3246C47.8569 11.272 47.9623 11.1667 48.1204 11.0613C48.2258 10.956 48.3313 10.8507 48.4367 10.6927C48.5421 10.5874 48.5948 10.4294 48.7002 10.2714C48.7529 10.1134 48.8056 9.95546 48.8583 9.79748C48.911 9.63949 48.911 9.48151 48.911 9.27086C48.911 9.11288 48.911 9.00756 48.8583 8.84958Z" fill="#FBC531"/>
<path d="M42.7445 16.3274C42.4809 15.9588 41.9012 15.9061 41.5322 16.1694L32.9939 22.9627L21.9783 18.3812C21.7148 18.2759 21.3986 18.3286 21.1877 18.4865L9.38163 26.9123C9.01269 27.1756 8.90727 27.7022 9.1708 28.0708C9.32892 28.3342 9.59245 28.4395 9.85598 28.4395C10.0141 28.4395 10.1722 28.3868 10.3303 28.2815L21.7675 20.119L32.8357 24.7005C33.0993 24.8059 33.4682 24.7532 33.679 24.5952L42.5863 17.5386C42.9553 17.2753 43.008 16.6961 42.7445 16.3274Z" fill="#FBC531"/>
<path d="M55.0776 45.1856H51.1774V20.8035C51.1774 20.3296 50.8085 19.9609 50.3341 19.9609H42.5864C42.112 19.9609 41.7431 20.3296 41.7431 20.8035V45.1856H38.8969V29.2293C38.8969 28.7553 38.528 28.3867 38.0536 28.3867H30.2532C29.7788 28.3867 29.4099 28.7553 29.4099 29.2293V45.1856H26.5638V27.9654C26.5638 27.4915 26.1948 27.1228 25.7205 27.1228H17.9727C17.4984 27.1228 17.1294 27.4915 17.1294 27.9654V45.1856H14.2833V32.9156C14.2833 32.4416 13.9144 32.073 13.44 32.073H5.63953C5.16518 32.073 4.79624 32.4416 4.79624 32.9156V45.1856H0.843294C0.368941 45.1856 0 45.5542 0 46.0282C0 46.5021 0.368941 46.8707 0.843294 46.8707H5.58682H13.3346H17.9727H25.7205H30.2532H38.0009H42.5336H50.2814H55.0249C55.4993 46.8707 55.8682 46.5021 55.8682 46.0282C55.9209 45.5542 55.552 45.1856 55.0776 45.1856ZM12.544 45.1856H6.48282V33.7581H12.544V45.1856ZM24.8772 45.1856H18.816V28.808H24.8772V45.1856ZM37.1576 45.1856H31.0965V30.0719H37.1576V45.1856ZM49.4908 45.1856H43.4296V21.6461H49.4908V45.1856Z" fill="#FBC531"/>
</g>
</g>
</g>
<defs>
<clipPath id="clip0_54_205">
<rect width="56" height="47" fill="white"/>
</clipPath>
<clipPath id="clip1_54_205">
<rect width="56" height="47" fill="white"/>
</clipPath>
<clipPath id="clip2_54_205">
<rect width="56" height="47" fill="white"/>
</clipPath>
</defs>
</svg>
