<svg width="56" height="56" viewBox="0 0 56 56" fill="none" xmlns="http://www.w3.org/2000/svg">
<g clip-path="url(#clip0_54_230)">
<g clip-path="url(#clip1_54_230)">
<g clip-path="url(#clip2_54_230)">
<path d="M54.8845 51.0756H6.68762L12.7697 44.2817C13.3038 44.566 13.9123 44.7277 14.5578 44.7277C16.0438 44.7277 17.334 43.8733 17.969 42.6288L24.1835 44.2042C24.3479 46.1738 25.9963 47.7265 28.0001 47.7265C30.1126 47.7265 31.8312 46.0011 31.8312 43.8804C31.8312 42.7108 31.3079 41.6622 30.4848 40.9563L35.5527 28.7965L39.1617 38.0357C38.2991 38.7416 37.7468 39.816 37.7468 41.0177C37.7468 43.1384 39.4656 44.8638 41.578 44.8638C43.6905 44.8638 45.4091 43.1384 45.4091 41.0177C45.4091 40.5844 45.3363 40.168 45.204 39.7791L49.6309 35.3346C50.0665 34.8973 50.0665 34.1882 49.6309 33.7507C49.1952 33.3135 48.4889 33.3135 48.0532 33.7507L43.8771 37.9433C43.2363 37.4589 42.4398 37.1714 41.5777 37.1714C41.4594 37.1714 41.3424 37.1776 41.2267 37.1882L36.7893 25.8283L41.2471 15.1324C41.3561 15.1418 41.4661 15.1476 41.5776 15.1476C43.3515 15.1476 44.8471 13.9309 45.2811 12.285H52.3041C52.9202 12.285 53.4196 11.7836 53.4196 11.1652C53.4196 10.5467 52.9202 10.0453 52.3041 10.0453H45.1979C44.678 8.53964 43.2521 7.45521 41.5777 7.45521C39.4652 7.45521 37.7465 9.18056 37.7465 11.3014C37.7465 12.5105 38.3056 13.5903 39.1772 14.296L35.6193 22.8328L30.4218 9.5271C31.2027 8.82249 31.695 7.80131 31.695 6.6666C31.695 4.54574 29.9763 2.82039 27.8638 2.82039C25.7514 2.82039 24.033 4.54574 24.033 6.6666C24.033 7.58412 24.3552 8.42742 24.8912 9.0892L15.695 23.0776C15.2964 22.9361 14.868 22.8584 14.4219 22.8584C13.9641 22.8584 13.5251 22.9397 13.1179 23.0881L5.21817 12.6529V1.21462C5.21817 0.596201 4.71877 0.0947266 4.10266 0.0947266C3.48655 0.0947266 2.98703 0.596201 2.98703 1.21462V12.2265H1.11552C0.499406 12.2264 0 12.728 0 13.3464C0 13.9648 0.499406 14.4663 1.11552 14.4663H2.98714V25.7214H1.11552C0.499406 25.7214 0 26.2229 0 26.8413C0 27.4597 0.499406 27.9612 1.11552 27.9612H2.98714V39.4891H1.11552C0.499406 39.4891 0 39.9906 0 40.609C0 41.2274 0.499406 41.7289 1.11552 41.7289H2.98714V52.1955C2.98714 52.8139 3.48655 53.3154 4.10266 53.3154H13.7138V54.7853C13.7138 55.4037 14.2132 55.9052 14.8293 55.9052C15.4454 55.9052 15.9448 55.4037 15.9448 54.7853V53.3154H27.156V54.7853C27.156 55.4037 27.6554 55.9052 28.2715 55.9052C28.8876 55.9052 29.387 55.4037 29.387 54.7853V53.3154H40.8696V54.7853C40.8696 55.4037 41.369 55.9052 41.9851 55.9052C42.6012 55.9052 43.1006 55.4037 43.1006 54.7853V53.3154H54.8842C55.5003 53.3154 55.9997 52.8139 55.9997 52.1955C55.9997 51.5771 55.5006 51.0756 54.8845 51.0756ZM41.5781 39.4114C42.4603 39.4114 43.1782 40.1321 43.1782 41.0179C43.1782 41.9035 42.4604 42.6242 41.5781 42.6242C40.6958 42.6242 39.978 41.9036 39.978 41.0179C39.978 40.1321 40.6958 39.4114 41.5781 39.4114ZM41.578 9.69532C42.4604 9.69532 43.1781 10.416 43.1781 11.3018C43.1781 12.1875 42.4602 12.9082 41.578 12.9082C40.6957 12.9082 39.9779 12.1875 39.9779 11.3018C39.9779 10.416 40.6957 9.69532 41.578 9.69532ZM14.5578 42.4878C13.6755 42.4878 12.9578 41.7672 12.9578 40.8814C12.9578 39.9957 13.6756 39.2751 14.5578 39.2751C15.44 39.2751 16.1579 39.9957 16.1579 40.8814C16.1578 41.7673 15.44 42.4878 14.5578 42.4878ZM28 45.4867C27.1177 45.4867 26.4 44.766 26.4 43.8804C26.4 42.9946 27.1178 42.2739 28 42.2739C28.8822 42.2739 29.6 42.9946 29.6 43.8804C29.6 44.766 28.8823 45.4867 28 45.4867ZM27.8643 5.06072C28.7466 5.06072 29.4644 5.78136 29.4644 6.66715C29.4644 7.55294 28.7466 8.27358 27.8643 8.27358C26.9819 8.27358 26.2642 7.55294 26.2642 6.66715C26.2642 5.78136 26.9819 5.06072 27.8643 5.06072ZM14.4219 25.0987C15.3043 25.0987 16.022 25.8193 16.022 26.705C16.022 27.5908 15.3042 28.3115 14.4219 28.3115C13.5395 28.3115 12.8218 27.5908 12.8218 26.705C12.8219 25.8194 13.5398 25.0987 14.4219 25.0987ZM5.21828 16.355L11.3334 24.4329C10.8672 25.07 10.5909 25.8556 10.5909 26.7049C10.5909 28.8258 12.3095 30.5511 14.422 30.5511C16.5344 30.5511 18.2532 28.8258 18.2532 26.7049C18.2532 25.845 17.9705 25.0501 17.4935 24.4088L26.74 10.344C27.0957 10.4538 27.4731 10.5133 27.8642 10.5133C28.0446 10.5133 28.222 10.4997 28.3959 10.4754L34.3826 25.8011L28.4396 40.0603C28.2952 40.0437 28.1486 40.0341 27.9999 40.0341C26.5622 40.0341 25.3074 40.8337 24.6523 42.0129L18.3599 40.4177C18.131 38.515 16.5137 37.0352 14.5576 37.0352C12.4451 37.0352 10.7265 38.7605 10.7265 40.8813C10.7265 41.5396 10.8923 42.1596 11.1839 42.7019L5.21828 49.3659V16.355Z" fill="#FBC531"/>
<path d="M53.4329 29.798C52.9972 29.3606 52.2909 29.3606 51.8553 29.798L50.9726 30.6841C50.537 31.1216 50.537 31.8306 50.9726 32.268C51.1905 32.4866 51.4759 32.596 51.7614 32.596C52.0469 32.596 52.3325 32.4866 52.5502 32.268L53.4329 31.3819C53.8684 30.9444 53.8684 30.2354 53.4329 29.798Z" fill="#FBC531"/>
</g>
</g>
</g>
<defs>
<clipPath id="clip0_54_230">
<rect width="56" height="56" fill="white"/>
</clipPath>
<clipPath id="clip1_54_230">
<rect width="56" height="56" fill="white"/>
</clipPath>
<clipPath id="clip2_54_230">
<rect width="56" height="56" fill="white"/>
</clipPath>
</defs>
</svg>
