<svg width="56" height="50" viewBox="0 0 56 50" fill="none" xmlns="http://www.w3.org/2000/svg">
<g clip-path="url(#clip0_54_136)">
<g clip-path="url(#clip1_54_136)">
<g clip-path="url(#clip2_54_136)">
<path d="M54.677 47.134H1.323C0.592266 47.134 0 47.7237 0 48.4512C0 49.1784 0.592266 49.7683 1.323 49.7683H54.677C55.4075 49.7683 56 49.1784 56 48.4512C56 47.7238 55.4077 47.134 54.677 47.134Z" fill="#FBC531"/>
<path d="M51.228 7.03H41.9368C41.2063 7.03 40.6138 7.61985 40.6138 8.34712V17.3021H33.9685V2.12913C33.9685 1.40186 33.376 0.812012 32.6455 0.812012H23.3541C22.6236 0.812012 22.0311 1.40186 22.0311 2.12913V27.0518H15.3858V15.856C15.3858 15.1285 14.7933 14.5389 14.0628 14.5389H4.77161C4.04087 14.5389 3.44861 15.1285 3.44861 15.856V41.0706C3.44861 41.7981 4.04109 42.3878 4.77161 42.3878H14.0628H23.354H32.6454H41.9367H51.2279C51.9586 42.3878 52.5509 41.7979 52.5509 41.0706V8.34712C52.551 7.61985 51.9587 7.03 51.228 7.03ZM12.7399 39.7535H6.09461V17.1731H12.7399V39.7535ZM22.0313 39.7535H15.386V29.6861H22.0313V39.7535ZM31.3226 18.6193V39.7535H24.6772V3.44625H31.3226V18.6193ZM40.614 39.7535H33.9687V19.9364H40.614V39.7535ZM49.9052 39.7535H43.26V18.6193V9.66424H49.9053L49.9052 39.7535Z" fill="#FBC531"/>
</g>
</g>
</g>
<defs>
<clipPath id="clip0_54_136">
<rect width="56" height="49" fill="white" transform="translate(0 0.790039)"/>
</clipPath>
<clipPath id="clip1_54_136">
<rect width="56" height="49" fill="white" transform="translate(0 0.790039)"/>
</clipPath>
<clipPath id="clip2_54_136">
<rect width="56" height="49" fill="white" transform="translate(0 0.790039)"/>
</clipPath>
</defs>
</svg>
