<svg width="56" height="55" viewBox="0 0 56 55" fill="none" xmlns="http://www.w3.org/2000/svg">
<g clip-path="url(#clip0_54_302)">
<g clip-path="url(#clip1_54_302)">
<g clip-path="url(#clip2_54_302)">
<path d="M31.667 10.3482C28.9877 7.68129 25.4256 6.2124 21.6364 6.2124C17.8473 6.2124 14.285 7.68118 11.6056 10.3482C6.07483 15.8536 6.07483 24.8116 11.6056 30.3171C14.285 32.984 17.8472 34.4529 21.6364 34.4529C25.4255 34.4529 28.9877 32.9841 31.667 30.3171C34.3463 27.6502 35.8219 24.1043 35.8219 20.3326C35.8219 16.561 34.3463 13.0152 31.667 10.3482ZM12.748 11.4854C15.1221 9.1222 18.2788 7.82064 21.6363 7.82064C24.9937 7.82064 28.1503 9.1222 30.5244 11.4854C32.3982 13.3504 33.6069 15.7009 34.0334 18.2518L29.63 22.5379C29.213 22.3036 28.7322 22.1694 28.2202 22.1694C27.2235 22.1694 26.3437 22.6764 25.8269 23.4447L19.3548 21.4233C19.3551 21.4047 19.3562 21.3861 19.3562 21.3673C19.3562 19.7873 18.0648 18.5018 16.4774 18.5018C14.89 18.5018 13.5985 19.7873 13.5985 21.3673C13.5985 21.8838 13.7372 22.3685 13.9785 22.7876L10.5827 26.2914C8.00606 21.5491 8.72717 15.4877 12.748 11.4854ZM29.4836 25.0349C29.4836 25.7282 28.9168 26.2923 28.2203 26.2923C27.5238 26.2923 26.957 25.7282 26.957 25.0349C26.957 24.3416 27.5238 23.7774 28.2203 23.7774C28.9168 23.7774 29.4836 24.3415 29.4836 25.0349ZM17.7408 21.3671C17.7408 22.0604 17.174 22.6246 16.4775 22.6246C15.7809 22.6246 15.2141 22.0604 15.2141 21.3671C15.2141 20.6738 15.7809 20.1097 16.4775 20.1097C17.174 20.1098 17.7408 20.6738 17.7408 21.3671ZM30.5245 29.18C28.1504 31.5432 24.9939 32.8447 21.6364 32.8447C18.2789 32.8447 15.1222 31.5433 12.7481 29.18C12.2766 28.7107 11.8508 28.2127 11.47 27.6921L15.1411 23.9042C15.5408 24.1136 15.9954 24.2327 16.4775 24.2327C17.4742 24.2327 18.354 23.7257 18.8708 22.9574L25.3429 24.9788C25.3425 24.9974 25.3415 25.0161 25.3415 25.0348C25.3415 26.6148 26.6328 27.9004 28.2203 27.9004C29.8077 27.9004 31.0992 26.6148 31.0992 25.0348C31.0992 24.5479 30.9761 24.0892 30.7601 23.6873L34.2063 20.3329C34.2062 23.6749 32.8986 26.8169 30.5245 29.18Z" fill="#FBC531"/>
<path d="M14.4828 12.1299L15.5426 13.3436C18.0478 11.1762 21.56 10.508 24.7093 11.5998L25.2408 10.0812C21.5463 8.80023 17.4241 9.58529 14.4828 12.1299Z" fill="#FBC531"/>
<path d="M27.3142 11.0557L26.4738 12.4291C26.9013 12.6883 27.3117 12.9855 27.6934 13.3123L28.747 12.0931C28.2988 11.7094 27.8167 11.3604 27.3142 11.0557Z" fill="#FBC531"/>
<path d="M23.5689 29.3813C21.7512 29.7626 19.8832 29.6022 18.1662 28.9175L17.5654 30.4102C18.8673 30.9294 20.2427 31.1918 21.6283 31.1918C22.3868 31.1918 23.1483 31.1131 23.9022 30.9549L23.5689 29.3813Z" fill="#FBC531"/>
<path d="M41.8725 33.2515L40.6995 34.419L37.7895 31.3228C41.2337 26.3114 42.0629 20.042 40.2761 14.4248L42.5849 12.1773C42.991 12.3957 43.4555 12.5199 43.9486 12.5199C45.536 12.5199 46.8275 11.2343 46.8275 9.65426C46.8275 9.18633 46.7135 8.74464 46.5128 8.35401L51.4692 3.52961V6.02319H53.0848V0.814697H47.8523V2.42283H50.2955L45.4045 7.18354C44.9771 6.93303 44.4796 6.78856 43.9487 6.78856C42.3614 6.78856 41.0699 8.0741 41.0699 9.65415C41.0699 10.1597 41.2027 10.6349 41.4345 11.0477L39.6651 12.77C38.7125 10.5121 37.3155 8.39734 35.4712 6.56156C27.8425 -1.03186 15.4302 -1.03165 7.80161 6.56156C1.00603 13.3258 0.264141 23.8686 5.57528 31.458L4.21509 32.8614C3.81544 32.6519 3.36088 32.5328 2.87875 32.5328C1.29139 32.5327 0 33.8183 0 35.3983C0 36.9784 1.29139 38.2639 2.87886 38.2639C4.46633 38.2639 5.75772 36.9784 5.75772 35.3983C5.75772 34.8817 5.61903 34.3971 5.37764 33.9781L6.566 32.7519C6.95319 33.2168 7.36422 33.6683 7.8015 34.1036C11.6158 37.9003 16.6261 39.7986 21.6363 39.7986C25.4824 39.7986 29.328 38.6785 32.6331 36.4412L35.55 39.5448L34.3371 40.7522L48.4644 54.7653L56 47.2646L41.8725 33.2515ZM43.9487 8.3968C44.6452 8.3968 45.212 8.96097 45.212 9.65426C45.212 10.3475 44.6452 10.9117 43.9487 10.9117C43.2521 10.9117 42.6855 10.3475 42.6855 9.65426C42.6855 8.96097 43.2521 8.3968 43.9487 8.3968ZM2.87886 36.6557C2.18236 36.6557 1.61558 36.0915 1.61558 35.3982C1.61558 34.7049 2.18236 34.1408 2.87886 34.1408C3.57547 34.1408 4.14214 34.7049 4.14214 35.3982C4.14203 36.0916 3.57536 36.6557 2.87886 36.6557ZM8.94392 32.9666C1.94534 26.0003 1.94534 14.6653 8.94392 7.69872C12.4432 4.2155 17.0396 2.47411 21.6362 2.47411C26.2328 2.47411 30.8294 4.21572 34.3287 7.69872C41.3272 14.665 41.3272 26.0001 34.3287 32.9666C27.3303 39.9328 15.9423 39.9328 8.94392 32.9666ZM33.9388 35.4765C34.4677 35.0503 34.9794 34.593 35.4712 34.1036C35.9463 33.6307 36.3917 33.1392 36.8075 32.6318L39.5567 35.5566L36.6931 38.407L33.9388 35.4765ZM48.4625 52.493L36.624 40.7501L41.8747 35.5236L53.7132 47.2665L48.4625 52.493Z" fill="#FBC531"/>
<path d="M41.8736 37.8582L39.5619 40.1591L40.7044 41.2963L41.8736 40.1324L46.3324 44.5706L47.4747 43.4335L41.8736 37.8582Z" fill="#FBC531"/>
<path d="M48.8626 44.8068L47.7202 45.9492L48.912 47.141L50.0544 45.9986L48.8626 44.8068Z" fill="#FBC531"/>
<path d="M10.3686 40.6223H8.75305V42.3744H10.3686V40.6223Z" fill="#FBC531"/>
<path d="M10.3686 50.4426H8.75305V52.1947H10.3686V50.4426Z" fill="#FBC531"/>
<path d="M23.6743 44.0015H22.0587V45.7534H23.6743V44.0015Z" fill="#FBC531"/>
<path d="M46.8275 29.5383H45.2119V31.2904H46.8275V29.5383Z" fill="#FBC531"/>
<path d="M48.6605 15.5842H47.0449V17.3363H48.6605V15.5842Z" fill="#FBC531"/>
<path d="M54.0145 22.9729H52.3989V24.725H54.0145V22.9729Z" fill="#FBC531"/>
</g>
</g>
</g>
<defs>
<clipPath id="clip0_54_302">
<rect width="56" height="54" fill="white" transform="translate(0 0.790039)"/>
</clipPath>
<clipPath id="clip1_54_302">
<rect width="56" height="54" fill="white" transform="translate(0 0.790039)"/>
</clipPath>
<clipPath id="clip2_54_302">
<rect width="56" height="54" fill="white" transform="translate(0 0.790039)"/>
</clipPath>
</defs>
</svg>
