<svg width="56" height="57" viewBox="0 0 56 57" fill="none" xmlns="http://www.w3.org/2000/svg">
<g clip-path="url(#clip0_54_351)">
<g clip-path="url(#clip1_54_351)">
<g clip-path="url(#clip2_54_351)">
<path d="M49.8909 0.790039C46.5217 0.790039 43.7818 3.52997 43.7818 6.89913C43.7818 7.95295 44.0496 8.94466 44.521 9.81113L34.5133 19.8188C33.1337 18.7447 31.4068 18.0991 29.5273 18.0991C27.6477 18.0991 25.9209 18.7447 24.5402 19.8178L16.7318 12.0094C17.0902 11.4036 17.3091 10.7071 17.3091 9.95368C17.3091 7.70757 15.4825 5.88095 13.2364 5.88095C10.9903 5.88095 9.16364 7.70757 9.16364 9.95368C9.16364 12.1998 10.9903 14.0264 13.2364 14.0264C13.9898 14.0264 14.6863 13.8075 15.2921 13.4491L23.1005 21.2575C22.0273 22.6382 21.3818 24.365 21.3818 26.2446C21.3818 28.1241 22.0273 29.851 23.1005 31.2306L10.2063 44.1259C9.12087 43.1413 7.68625 42.5355 6.10909 42.5355C2.73993 42.5355 0 45.2754 0 48.6446C0 52.0137 2.73993 54.7537 6.10909 54.7537C9.47825 54.7537 12.2182 52.0137 12.2182 48.6446C12.2182 47.5908 11.9504 46.5991 11.479 45.7326L24.5412 32.6703C25.6673 33.546 27.0256 34.1324 28.5101 34.3188V44.6635C25.6256 45.1502 23.4192 47.659 23.4192 50.6809C23.4192 54.0501 26.1591 56.79 29.5283 56.79C32.8975 56.79 35.6374 54.0501 35.6374 50.6809C35.6374 47.66 33.431 45.1512 30.5465 44.6635V34.3188C32.031 34.1324 33.3892 33.546 34.5153 32.6703L42.3238 40.4788C41.9644 41.0856 41.7455 41.782 41.7455 42.5355C41.7455 44.7816 43.5721 46.6082 45.8182 46.6082C48.0643 46.6082 49.8909 44.7816 49.8909 42.5355C49.8909 40.2894 48.0643 38.4628 45.8182 38.4628C45.0647 38.4628 44.3683 38.6817 43.7625 39.0401L35.954 31.2316C37.0272 29.851 37.6727 28.1241 37.6727 26.2446C37.6727 24.365 37.0272 22.6382 35.954 21.2585L45.7948 11.4178C46.8791 12.4024 48.3137 13.0082 49.8909 13.0082C53.2601 13.0082 56 10.2683 56 6.89913C56 3.52997 53.2601 0.790039 49.8909 0.790039ZM11.2 9.95368C11.2 8.83062 12.1133 7.91731 13.2364 7.91731C14.3594 7.91731 15.2727 8.83062 15.2727 9.95368C15.2727 11.0767 14.3594 11.99 13.2364 11.99C12.1133 11.99 11.2 11.0767 11.2 9.95368ZM6.10909 52.7173C3.86298 52.7173 2.03636 50.8907 2.03636 48.6446C2.03636 46.3985 3.86298 44.5719 6.10909 44.5719C8.3552 44.5719 10.1818 46.3985 10.1818 48.6446C10.1818 50.8907 8.3552 52.7173 6.10909 52.7173ZM33.6 50.6809C33.6 52.9271 31.7734 54.7537 29.5273 54.7537C27.2812 54.7537 25.4545 52.9271 25.4545 50.6809C25.4545 48.4348 27.2812 46.6082 29.5273 46.6082C31.7734 46.6082 33.6 48.4348 33.6 50.6809ZM29.5273 32.3537C26.1581 32.3537 23.4182 29.6137 23.4182 26.2446C23.4182 22.8754 26.1581 20.1355 29.5273 20.1355C32.8964 20.1355 35.6364 22.8754 35.6364 26.2446C35.6364 29.6137 32.8964 32.3537 29.5273 32.3537ZM47.8545 42.5355C47.8545 43.6585 46.9412 44.5719 45.8182 44.5719C44.6951 44.5719 43.7818 43.6585 43.7818 42.5355C43.7818 41.4124 44.6951 40.4991 45.8182 40.4991C46.9412 40.4991 47.8545 41.4124 47.8545 42.5355ZM49.8909 10.9719C47.6448 10.9719 45.8182 9.14524 45.8182 6.89913C45.8182 4.65302 47.6448 2.8264 49.8909 2.8264C52.137 2.8264 53.9636 4.65302 53.9636 6.89913C53.9636 9.14524 52.137 10.9719 49.8909 10.9719Z" fill="#FBC531"/>
</g>
</g>
</g>
<defs>
<clipPath id="clip0_54_351">
<rect width="56" height="56" fill="white" transform="translate(0 0.790039)"/>
</clipPath>
<clipPath id="clip1_54_351">
<rect width="56" height="56" fill="white" transform="translate(0 0.790039)"/>
</clipPath>
<clipPath id="clip2_54_351">
<rect width="56" height="56" fill="white" transform="translate(0 0.790039)"/>
</clipPath>
</defs>
</svg>
